<svg width="364" height="233" viewBox="0 0 364 233" fill="none" xmlns="http://www.w3.org/2000/svg">
<g filter="url(#filter0_b_48_3)">
<rect x="2" y="1.31352" width="360" height="230" rx="15.1928" fill="url(#paint0_linear_48_3)"/>
<rect x="1.36697" y="0.680488" width="361.266" height="231.266" rx="15.8259" stroke="url(#paint1_radial_48_3)" stroke-width="1.26607"/>
<rect x="1.36697" y="0.680488" width="361.266" height="231.266" rx="15.8259" stroke="url(#paint2_linear_48_3)" stroke-opacity="0.4" stroke-width="1.26607"/>
<rect x="1.36697" y="0.680488" width="361.266" height="231.266" rx="15.8259" stroke="url(#paint3_linear_48_3)" stroke-width="1.26607"/>
</g>
<defs>
<filter id="filter0_b_48_3" x="-22.1752" y="-22.8616" width="408.35" height="278.35" filterUnits="userSpaceOnUse" color-interpolation-filters="sRGB">
<feFlood flood-opacity="0" result="BackgroundImageFix"/>
<feGaussianBlur in="BackgroundImage" stdDeviation="11.4545"/>
<feComposite in2="SourceAlpha" operator="in" result="effect1_backgroundBlur_48_3"/>
<feBlend mode="normal" in="SourceGraphic" in2="effect1_backgroundBlur_48_3" result="shape"/>
</filter>
<linearGradient id="paint0_linear_48_3" x1="2" y1="1.31352" x2="130.405" y2="323.589" gradientUnits="userSpaceOnUse">
<stop stop-color="white" stop-opacity="0.4"/>
<stop offset="1" stop-color="white" stop-opacity="0"/>
</linearGradient>
<radialGradient id="paint1_radial_48_3" cx="0" cy="0" r="1" gradientUnits="userSpaceOnUse" gradientTransform="translate(2 1.31352) rotate(32.5741) scale(427.2 269.348)">
<stop stop-color="white" stop-opacity="0.7"/>
<stop offset="0.677083" stop-color="#B691FF" stop-opacity="0.4"/>
<stop offset="1" stop-color="white" stop-opacity="0"/>
</radialGradient>
<linearGradient id="paint2_linear_48_3" x1="351.951" y1="227.48" x2="316.94" y2="83.5003" gradientUnits="userSpaceOnUse">
<stop stop-color="white" stop-opacity="0.32"/>
<stop offset="0.140625" stop-color="#F9FFF5"/>
<stop offset="1" stop-color="white" stop-opacity="0"/>
</linearGradient>
<linearGradient id="paint3_linear_48_3" x1="357.631" y1="3.05595" x2="323.401" y2="147.961" gradientUnits="userSpaceOnUse">
<stop stop-color="#53555E"/>
<stop offset="1" stop-color="white" stop-opacity="0"/>
</linearGradient>
</defs>
<path d="M203.908 370.62C105.307 501.005 131.074 686.651 261.459 785.252C391.844 883.854 577.49 858.086 676.092 727.701C774.693 597.316 748.925 411.671 618.54 313.069C488.156 214.468 302.51 240.235 203.908 370.62ZM589.438 662.171C559.466 701.805 514.977 727.908 465.758 734.74C416.54 741.571 366.623 728.571 326.99 698.599C287.356 668.627 261.252 624.138 254.421 574.919C247.589 525.701 260.589 475.784 290.562 436.15C320.534 396.517 365.023 370.413 414.242 363.582C463.46 356.75 513.377 369.75 553.01 399.723C592.644 429.695 618.748 474.184 625.579 523.402C632.411 572.621 619.41 622.538 589.438 662.171Z" fill="url(#paint0_linear_3_2140)" fill-opacity="0.2"/>
<path d="M38.0901 19.6111C-74.0692 68.4591 -125.398 198.992 -76.5496 311.152C-27.7016 423.311 102.832 474.639 214.991 425.791C327.15 376.943 378.479 246.41 329.631 134.251C280.783 22.0915 150.249 -29.2369 38.0901 19.6111ZM182.527 351.251C148.433 366.099 109.838 366.796 75.2307 353.188C40.6235 339.579 12.8397 312.781 -2.0088 278.687C-16.8573 244.594 -17.554 205.998 -3.94578 171.391C9.66245 136.784 36.4609 109 70.5543 94.1519C104.648 79.3034 143.243 78.6066 177.851 92.2148C212.458 105.823 240.241 132.622 255.09 166.715C269.938 200.808 270.635 239.404 257.027 274.011C243.419 308.618 216.62 336.402 182.527 351.251Z" fill="url(#paint1_linear_3_2140)" fill-opacity="0.2"/>
<defs>
<linearGradient id="paint0_linear_3_2140" x1="203.908" y1="370.62" x2="676.092" y2="727.701" gradientUnits="userSpaceOnUse">
<stop stop-color="white"/>
<stop offset="0.421136" stop-color="white" stop-opacity="0"/>
<stop offset="1" stop-color="white" stop-opacity="0"/>
</linearGradient>
<linearGradient id="paint1_linear_3_2140" x1="38.0901" y1="19.6111" x2="214.991" y2="425.791" gradientUnits="userSpaceOnUse">
<stop stop-color="white"/>
<stop offset="0.421136" stop-color="white" stop-opacity="0"/>
<stop offset="1" stop-color="white" stop-opacity="0"/>
</linearGradient>
</defs>


</svg>
